<mxfile host="app.diagrams.net" agent="Mozilla/5.0 (Windows NT 10.0; Win64; x64) AppleWebKit/537.36 (KHTML, like Gecko) Chrome/133.0.0.0 Safari/537.36 Edg/133.0.0.0" version="26.0.16">
  <diagram name="Page-1" id="xrQyVHr1ytASWisxXh-F">
    <mxGraphModel dx="2605" dy="1413" grid="1" gridSize="10" guides="1" tooltips="1" connect="1" arrows="1" fold="1" page="1" pageScale="1" pageWidth="1169" pageHeight="1654" math="0" shadow="0">
      <root>
        <mxCell id="0" />
        <mxCell id="1" parent="0" />
        <mxCell id="8wjY58HfIIRKGotfD0Fy-1" value="&lt;strong data-end=&quot;318&quot; data-start=&quot;308&quot;&gt;Step 1&lt;/strong&gt;: Data Ingestion &amp;amp; Preprocessing" style="rounded=0;whiteSpace=wrap;html=1;fillColor=#dae8fc;strokeColor=#6c8ebf;" vertex="1" parent="1">
          <mxGeometry x="524" y="80" width="120" height="60" as="geometry" />
        </mxCell>
        <mxCell id="8wjY58HfIIRKGotfD0Fy-2" value="&lt;strong data-end=&quot;370&quot; data-start=&quot;360&quot;&gt;Step 2&lt;/strong&gt;: Multi-Sensory Perception" style="rounded=0;whiteSpace=wrap;html=1;fillColor=#dae8fc;strokeColor=#6c8ebf;" vertex="1" parent="1">
          <mxGeometry x="524" y="200" width="120" height="60" as="geometry" />
        </mxCell>
        <mxCell id="8wjY58HfIIRKGotfD0Fy-3" value="&lt;strong data-end=&quot;416&quot; data-start=&quot;406&quot;&gt;Step 3&lt;/strong&gt;: Integration &amp;amp; Working Memory" style="rounded=0;whiteSpace=wrap;html=1;fillColor=#dae8fc;strokeColor=#6c8ebf;" vertex="1" parent="1">
          <mxGeometry x="524" y="320" width="120" height="60" as="geometry" />
        </mxCell>
        <mxCell id="8wjY58HfIIRKGotfD0Fy-4" value="&lt;strong data-end=&quot;466&quot; data-start=&quot;456&quot;&gt;Step 4&lt;/strong&gt;: Task Decomposition &amp;amp; Routing" style="rounded=0;whiteSpace=wrap;html=1;fillColor=#dae8fc;strokeColor=#6c8ebf;" vertex="1" parent="1">
          <mxGeometry x="524" y="440" width="120" height="60" as="geometry" />
        </mxCell>
        <mxCell id="8wjY58HfIIRKGotfD0Fy-5" value="&lt;strong data-end=&quot;516&quot; data-start=&quot;506&quot;&gt;Step 5&lt;/strong&gt;: Specialized Processing Agents" style="rounded=0;whiteSpace=wrap;html=1;fillColor=#dae8fc;strokeColor=#6c8ebf;" vertex="1" parent="1">
          <mxGeometry x="524" y="560" width="120" height="60" as="geometry" />
        </mxCell>
        <mxCell id="8wjY58HfIIRKGotfD0Fy-6" value="&lt;strong data-end=&quot;567&quot; data-start=&quot;557&quot;&gt;Step 6&lt;/strong&gt;: Intermediate Evaluation &amp;amp; Meta-Cognition" style="rounded=0;whiteSpace=wrap;html=1;fillColor=#dae8fc;strokeColor=#6c8ebf;" vertex="1" parent="1">
          <mxGeometry x="524" y="680" width="120" height="60" as="geometry" />
        </mxCell>
        <mxCell id="8wjY58HfIIRKGotfD0Fy-7" value="&lt;strong data-end=&quot;629&quot; data-start=&quot;619&quot;&gt;Step 7&lt;/strong&gt;: Long-Term Memory &amp;amp; Knowledge Base" style="rounded=0;whiteSpace=wrap;html=1;fillColor=#dae8fc;strokeColor=#6c8ebf;" vertex="1" parent="1">
          <mxGeometry x="524" y="800" width="120" height="60" as="geometry" />
        </mxCell>
        <mxCell id="8wjY58HfIIRKGotfD0Fy-8" value="&lt;strong data-end=&quot;684&quot; data-start=&quot;674&quot;&gt;Step 8&lt;/strong&gt;: Decision Aggregation &amp;amp; Output Generation" style="rounded=0;whiteSpace=wrap;html=1;fillColor=#dae8fc;strokeColor=#6c8ebf;" vertex="1" parent="1">
          <mxGeometry x="524" y="920" width="120" height="60" as="geometry" />
        </mxCell>
        <mxCell id="8wjY58HfIIRKGotfD0Fy-9" value="&lt;strong data-end=&quot;746&quot; data-start=&quot;736&quot;&gt;Step 9&lt;/strong&gt;: Feedback Loop &amp;amp; Continuous Learning" style="rounded=0;whiteSpace=wrap;html=1;fillColor=#dae8fc;strokeColor=#6c8ebf;" vertex="1" parent="1">
          <mxGeometry x="524" y="1040" width="120" height="60" as="geometry" />
        </mxCell>
        <mxCell id="8wjY58HfIIRKGotfD0Fy-10" value="&lt;strong data-end=&quot;804&quot; data-start=&quot;793&quot;&gt;Step 10&lt;/strong&gt;: Monitoring, Maintenance &amp;amp; Scalability" style="rounded=0;whiteSpace=wrap;html=1;fillColor=#dae8fc;strokeColor=#6c8ebf;" vertex="1" parent="1">
          <mxGeometry x="524" y="1160" width="120" height="60" as="geometry" />
        </mxCell>
        <mxCell id="8wjY58HfIIRKGotfD0Fy-17" value="Communitorial Optimization" style="ellipse;whiteSpace=wrap;html=1;fillColor=#ffe6cc;strokeColor=#d79b00;" vertex="1" parent="1">
          <mxGeometry x="219" y="450" width="120" height="160" as="geometry" />
        </mxCell>
        <mxCell id="8wjY58HfIIRKGotfD0Fy-18" value="Graph RL Module" style="shape=parallelogram;perimeter=parallelogramPerimeter;whiteSpace=wrap;html=1;fixedSize=1;fillColor=#ffe6cc;strokeColor=#d79b00;" vertex="1" parent="1">
          <mxGeometry x="829" y="560" width="120" height="60" as="geometry" />
        </mxCell>
        <mxCell id="8wjY58HfIIRKGotfD0Fy-19" value="" style="endArrow=classic;html=1;rounded=0;entryX=0.5;entryY=0;entryDx=0;entryDy=0;" edge="1" parent="1" source="8wjY58HfIIRKGotfD0Fy-1" target="8wjY58HfIIRKGotfD0Fy-2">
          <mxGeometry width="50" height="50" relative="1" as="geometry">
            <mxPoint x="884" y="350" as="sourcePoint" />
            <mxPoint x="704" y="290" as="targetPoint" />
            <Array as="points" />
          </mxGeometry>
        </mxCell>
        <mxCell id="8wjY58HfIIRKGotfD0Fy-40" value="Preprocessed Data" style="edgeLabel;html=1;align=center;verticalAlign=middle;resizable=0;points=[];" vertex="1" connectable="0" parent="8wjY58HfIIRKGotfD0Fy-19">
          <mxGeometry x="-0.2231" y="-1" relative="1" as="geometry">
            <mxPoint as="offset" />
          </mxGeometry>
        </mxCell>
        <mxCell id="8wjY58HfIIRKGotfD0Fy-20" value="" style="endArrow=classic;html=1;rounded=0;entryX=0.5;entryY=0;entryDx=0;entryDy=0;" edge="1" parent="1" source="8wjY58HfIIRKGotfD0Fy-2" target="8wjY58HfIIRKGotfD0Fy-3">
          <mxGeometry width="50" height="50" relative="1" as="geometry">
            <mxPoint x="784" y="330" as="sourcePoint" />
            <mxPoint x="844" y="280" as="targetPoint" />
          </mxGeometry>
        </mxCell>
        <mxCell id="8wjY58HfIIRKGotfD0Fy-41" value="Multi-Sensory Features" style="edgeLabel;html=1;align=center;verticalAlign=middle;resizable=0;points=[];" vertex="1" connectable="0" parent="8wjY58HfIIRKGotfD0Fy-20">
          <mxGeometry x="-0.0179" relative="1" as="geometry">
            <mxPoint as="offset" />
          </mxGeometry>
        </mxCell>
        <mxCell id="8wjY58HfIIRKGotfD0Fy-22" value="" style="endArrow=classic;html=1;rounded=0;" edge="1" parent="1" source="8wjY58HfIIRKGotfD0Fy-3" target="8wjY58HfIIRKGotfD0Fy-4">
          <mxGeometry width="50" height="50" relative="1" as="geometry">
            <mxPoint x="964" y="330" as="sourcePoint" />
            <mxPoint x="1024" y="280" as="targetPoint" />
          </mxGeometry>
        </mxCell>
        <mxCell id="8wjY58HfIIRKGotfD0Fy-42" value="Fused Representation" style="edgeLabel;html=1;align=center;verticalAlign=middle;resizable=0;points=[];" vertex="1" connectable="0" parent="8wjY58HfIIRKGotfD0Fy-22">
          <mxGeometry x="-0.1718" y="2" relative="1" as="geometry">
            <mxPoint as="offset" />
          </mxGeometry>
        </mxCell>
        <mxCell id="8wjY58HfIIRKGotfD0Fy-23" value="" style="endArrow=classic;html=1;rounded=0;exitX=0.5;exitY=1;exitDx=0;exitDy=0;entryX=0.5;entryY=0;entryDx=0;entryDy=0;" edge="1" parent="1" source="8wjY58HfIIRKGotfD0Fy-4" target="8wjY58HfIIRKGotfD0Fy-5">
          <mxGeometry width="50" height="50" relative="1" as="geometry">
            <mxPoint x="1124" y="310" as="sourcePoint" />
            <mxPoint x="1174" y="260" as="targetPoint" />
          </mxGeometry>
        </mxCell>
        <mxCell id="8wjY58HfIIRKGotfD0Fy-43" value="Subtasks &amp;amp; Routing Info" style="edgeLabel;html=1;align=center;verticalAlign=middle;resizable=0;points=[];" vertex="1" connectable="0" parent="8wjY58HfIIRKGotfD0Fy-23">
          <mxGeometry x="-0.1718" relative="1" as="geometry">
            <mxPoint as="offset" />
          </mxGeometry>
        </mxCell>
        <mxCell id="8wjY58HfIIRKGotfD0Fy-35" value="" style="endArrow=classic;html=1;rounded=0;exitX=0.5;exitY=1;exitDx=0;exitDy=0;entryX=0.5;entryY=0;entryDx=0;entryDy=0;" edge="1" parent="1" source="8wjY58HfIIRKGotfD0Fy-5" target="8wjY58HfIIRKGotfD0Fy-6">
          <mxGeometry width="50" height="50" relative="1" as="geometry">
            <mxPoint x="574" y="580" as="sourcePoint" />
            <mxPoint x="624" y="530" as="targetPoint" />
          </mxGeometry>
        </mxCell>
        <mxCell id="8wjY58HfIIRKGotfD0Fy-44" value="Agent Outputs" style="edgeLabel;html=1;align=center;verticalAlign=middle;resizable=0;points=[];" vertex="1" connectable="0" parent="8wjY58HfIIRKGotfD0Fy-35">
          <mxGeometry x="-0.2231" y="2" relative="1" as="geometry">
            <mxPoint as="offset" />
          </mxGeometry>
        </mxCell>
        <mxCell id="8wjY58HfIIRKGotfD0Fy-36" value="" style="endArrow=classic;html=1;rounded=0;exitX=0.5;exitY=1;exitDx=0;exitDy=0;entryX=0.5;entryY=0;entryDx=0;entryDy=0;" edge="1" parent="1" source="8wjY58HfIIRKGotfD0Fy-6" target="8wjY58HfIIRKGotfD0Fy-7">
          <mxGeometry width="50" height="50" relative="1" as="geometry">
            <mxPoint x="354" y="630" as="sourcePoint" />
            <mxPoint x="404" y="580" as="targetPoint" />
          </mxGeometry>
        </mxCell>
        <mxCell id="8wjY58HfIIRKGotfD0Fy-45" value="Evaluated Outputs" style="edgeLabel;html=1;align=center;verticalAlign=middle;resizable=0;points=[];" vertex="1" connectable="0" parent="8wjY58HfIIRKGotfD0Fy-36">
          <mxGeometry x="-0.1205" relative="1" as="geometry">
            <mxPoint as="offset" />
          </mxGeometry>
        </mxCell>
        <mxCell id="8wjY58HfIIRKGotfD0Fy-37" value="" style="endArrow=classic;html=1;rounded=0;exitX=0.5;exitY=1;exitDx=0;exitDy=0;entryX=0.5;entryY=0;entryDx=0;entryDy=0;" edge="1" parent="1" source="8wjY58HfIIRKGotfD0Fy-7" target="8wjY58HfIIRKGotfD0Fy-8">
          <mxGeometry width="50" height="50" relative="1" as="geometry">
            <mxPoint x="414" y="750" as="sourcePoint" />
            <mxPoint x="464" y="700" as="targetPoint" />
          </mxGeometry>
        </mxCell>
        <mxCell id="8wjY58HfIIRKGotfD0Fy-46" value="Contextualized Data" style="edgeLabel;html=1;align=center;verticalAlign=middle;resizable=0;points=[];" vertex="1" connectable="0" parent="8wjY58HfIIRKGotfD0Fy-37">
          <mxGeometry x="-0.1093" y="-1" relative="1" as="geometry">
            <mxPoint as="offset" />
          </mxGeometry>
        </mxCell>
        <mxCell id="8wjY58HfIIRKGotfD0Fy-38" value="" style="endArrow=classic;html=1;rounded=0;exitX=0.5;exitY=1;exitDx=0;exitDy=0;entryX=0.5;entryY=0;entryDx=0;entryDy=0;" edge="1" parent="1" source="8wjY58HfIIRKGotfD0Fy-8" target="8wjY58HfIIRKGotfD0Fy-9">
          <mxGeometry width="50" height="50" relative="1" as="geometry">
            <mxPoint x="454" y="860" as="sourcePoint" />
            <mxPoint x="504" y="810" as="targetPoint" />
          </mxGeometry>
        </mxCell>
        <mxCell id="8wjY58HfIIRKGotfD0Fy-47" value="Final Decision" style="edgeLabel;html=1;align=center;verticalAlign=middle;resizable=0;points=[];" vertex="1" connectable="0" parent="8wjY58HfIIRKGotfD0Fy-38">
          <mxGeometry x="-0.1893" y="-2" relative="1" as="geometry">
            <mxPoint as="offset" />
          </mxGeometry>
        </mxCell>
        <mxCell id="8wjY58HfIIRKGotfD0Fy-39" value="" style="endArrow=classic;html=1;rounded=0;exitX=0.5;exitY=1;exitDx=0;exitDy=0;entryX=0.5;entryY=0;entryDx=0;entryDy=0;" edge="1" parent="1" source="8wjY58HfIIRKGotfD0Fy-9" target="8wjY58HfIIRKGotfD0Fy-10">
          <mxGeometry width="50" height="50" relative="1" as="geometry">
            <mxPoint x="444" y="920" as="sourcePoint" />
            <mxPoint x="494" y="870" as="targetPoint" />
          </mxGeometry>
        </mxCell>
        <mxCell id="8wjY58HfIIRKGotfD0Fy-48" value="System Feedback &amp;amp; Metrics" style="edgeLabel;html=1;align=center;verticalAlign=middle;resizable=0;points=[];" vertex="1" connectable="0" parent="8wjY58HfIIRKGotfD0Fy-39">
          <mxGeometry x="-0.216" y="-1" relative="1" as="geometry">
            <mxPoint as="offset" />
          </mxGeometry>
        </mxCell>
        <mxCell id="8wjY58HfIIRKGotfD0Fy-49" value="HMAS Architecture Diagram" style="text;strokeColor=none;fillColor=none;html=1;fontSize=24;fontStyle=1;verticalAlign=middle;align=center;" vertex="1" parent="1">
          <mxGeometry x="534" y="10" width="100" height="40" as="geometry" />
        </mxCell>
        <mxCell id="8wjY58HfIIRKGotfD0Fy-50" value="" style="endArrow=classic;html=1;rounded=0;exitX=1;exitY=0.25;exitDx=0;exitDy=0;entryX=0.125;entryY=0.25;entryDx=0;entryDy=0;entryPerimeter=0;" edge="1" parent="1" source="8wjY58HfIIRKGotfD0Fy-5" target="8wjY58HfIIRKGotfD0Fy-18">
          <mxGeometry width="50" height="50" relative="1" as="geometry">
            <mxPoint x="679" y="610" as="sourcePoint" />
            <mxPoint x="739" y="569" as="targetPoint" />
          </mxGeometry>
        </mxCell>
        <mxCell id="8wjY58HfIIRKGotfD0Fy-52" value="Combinatorial Subtasks" style="edgeLabel;html=1;align=center;verticalAlign=middle;resizable=0;points=[];" vertex="1" connectable="0" parent="8wjY58HfIIRKGotfD0Fy-50">
          <mxGeometry x="0.0989" y="2" relative="1" as="geometry">
            <mxPoint as="offset" />
          </mxGeometry>
        </mxCell>
        <mxCell id="8wjY58HfIIRKGotfD0Fy-51" value="" style="endArrow=classic;html=1;rounded=0;exitX=0;exitY=0.75;exitDx=0;exitDy=0;" edge="1" parent="1" source="8wjY58HfIIRKGotfD0Fy-18">
          <mxGeometry width="50" height="50" relative="1" as="geometry">
            <mxPoint x="669" y="650" as="sourcePoint" />
            <mxPoint x="649" y="604" as="targetPoint" />
          </mxGeometry>
        </mxCell>
        <mxCell id="8wjY58HfIIRKGotfD0Fy-53" value="Optimized Decisions" style="edgeLabel;html=1;align=center;verticalAlign=middle;resizable=0;points=[];" vertex="1" connectable="0" parent="8wjY58HfIIRKGotfD0Fy-51">
          <mxGeometry x="0.0272" y="-1" relative="1" as="geometry">
            <mxPoint as="offset" />
          </mxGeometry>
        </mxCell>
        <mxCell id="8wjY58HfIIRKGotfD0Fy-54" value="" style="endArrow=classic;html=1;rounded=0;entryX=1;entryY=0;entryDx=0;entryDy=0;exitX=0;exitY=0.25;exitDx=0;exitDy=0;" edge="1" parent="1" source="8wjY58HfIIRKGotfD0Fy-4" target="8wjY58HfIIRKGotfD0Fy-17">
          <mxGeometry width="50" height="50" relative="1" as="geometry">
            <mxPoint x="524" y="470" as="sourcePoint" />
            <mxPoint x="489" y="460" as="targetPoint" />
          </mxGeometry>
        </mxCell>
        <mxCell id="8wjY58HfIIRKGotfD0Fy-55" value="Routing/Communication Requests" style="edgeLabel;html=1;align=center;verticalAlign=middle;resizable=0;points=[];" vertex="1" connectable="0" parent="8wjY58HfIIRKGotfD0Fy-54">
          <mxGeometry x="0.3302" relative="1" as="geometry">
            <mxPoint x="30" y="-7" as="offset" />
          </mxGeometry>
        </mxCell>
        <mxCell id="8wjY58HfIIRKGotfD0Fy-56" value="" style="endArrow=classic;html=1;rounded=0;entryX=1;entryY=0.688;entryDx=0;entryDy=0;exitX=0;exitY=0.25;exitDx=0;exitDy=0;entryPerimeter=0;" edge="1" parent="1" source="8wjY58HfIIRKGotfD0Fy-5" target="8wjY58HfIIRKGotfD0Fy-17">
          <mxGeometry width="50" height="50" relative="1" as="geometry">
            <mxPoint x="509" y="580" as="sourcePoint" />
            <mxPoint x="459" y="580" as="targetPoint" />
          </mxGeometry>
        </mxCell>
        <mxCell id="8wjY58HfIIRKGotfD0Fy-57" value="Agent Communication Metrics" style="edgeLabel;html=1;align=center;verticalAlign=middle;resizable=0;points=[];" vertex="1" connectable="0" parent="8wjY58HfIIRKGotfD0Fy-56">
          <mxGeometry x="-0.052" relative="1" as="geometry">
            <mxPoint as="offset" />
          </mxGeometry>
        </mxCell>
        <mxCell id="8wjY58HfIIRKGotfD0Fy-58" value="" style="curved=1;endArrow=classic;html=1;rounded=0;exitX=0;exitY=0.5;exitDx=0;exitDy=0;entryX=0.5;entryY=1;entryDx=0;entryDy=0;" edge="1" parent="1" source="8wjY58HfIIRKGotfD0Fy-9" target="8wjY58HfIIRKGotfD0Fy-17">
          <mxGeometry width="50" height="50" relative="1" as="geometry">
            <mxPoint x="409" y="1080" as="sourcePoint" />
            <mxPoint x="419" y="750" as="targetPoint" />
            <Array as="points">
              <mxPoint x="459" y="1080" />
              <mxPoint x="409" y="1030" />
            </Array>
          </mxGeometry>
        </mxCell>
        <mxCell id="8wjY58HfIIRKGotfD0Fy-59" value="Feedback Metrics" style="edgeLabel;html=1;align=center;verticalAlign=middle;resizable=0;points=[];" vertex="1" connectable="0" parent="8wjY58HfIIRKGotfD0Fy-58">
          <mxGeometry x="0.4313" y="1" relative="1" as="geometry">
            <mxPoint x="30" y="82" as="offset" />
          </mxGeometry>
        </mxCell>
        <mxCell id="8wjY58HfIIRKGotfD0Fy-60" value="" style="endArrow=classic;html=1;rounded=0;exitX=1;exitY=1;exitDx=0;exitDy=0;entryX=0;entryY=0.75;entryDx=0;entryDy=0;" edge="1" parent="1" source="8wjY58HfIIRKGotfD0Fy-17" target="8wjY58HfIIRKGotfD0Fy-5">
          <mxGeometry width="50" height="50" relative="1" as="geometry">
            <mxPoint x="369" y="660" as="sourcePoint" />
            <mxPoint x="419" y="610" as="targetPoint" />
          </mxGeometry>
        </mxCell>
        <mxCell id="8wjY58HfIIRKGotfD0Fy-64" value="Optimized Communication Protocols" style="edgeLabel;html=1;align=center;verticalAlign=middle;resizable=0;points=[];" vertex="1" connectable="0" parent="8wjY58HfIIRKGotfD0Fy-60">
          <mxGeometry x="-0.1836" y="1" relative="1" as="geometry">
            <mxPoint x="15" as="offset" />
          </mxGeometry>
        </mxCell>
        <mxCell id="8wjY58HfIIRKGotfD0Fy-65" value="" style="endArrow=classic;html=1;rounded=0;exitX=0.99;exitY=0.325;exitDx=0;exitDy=0;exitPerimeter=0;entryX=0;entryY=0.75;entryDx=0;entryDy=0;" edge="1" parent="1" source="8wjY58HfIIRKGotfD0Fy-17" target="8wjY58HfIIRKGotfD0Fy-4">
          <mxGeometry width="50" height="50" relative="1" as="geometry">
            <mxPoint x="399" y="540" as="sourcePoint" />
            <mxPoint x="449" y="490" as="targetPoint" />
          </mxGeometry>
        </mxCell>
        <mxCell id="8wjY58HfIIRKGotfD0Fy-66" value="Optimized Routing Parameters" style="edgeLabel;html=1;align=center;verticalAlign=middle;resizable=0;points=[];" vertex="1" connectable="0" parent="8wjY58HfIIRKGotfD0Fy-65">
          <mxGeometry x="-0.1602" y="-2" relative="1" as="geometry">
            <mxPoint x="12" as="offset" />
          </mxGeometry>
        </mxCell>
      </root>
    </mxGraphModel>
  </diagram>
</mxfile>
